<?xml version="1.0" encoding="utf-8"?>
<svg xmlns="http://www.w3.org/2000/svg" viewBox="0 0 24 24" width="100" height="100">
  <defs>
    <linearGradient id="g" x1="0" y1="0" x2="24" y2="24">
      <stop offset="0%" stop-color="#90CAF9"/>
      <stop offset="100%" stop-color="#1E88E5"/>
    </linearGradient>
  </defs>
  <path d="M6 5c0-.55.45-1 1-1h9l3 3v11c0 .55-.45 1-1 1H7c-.55 0-1-.45-1-1V5z" fill="url(#g)" opacity="0.35"/>
  <path d="M10 8a1 1 0 0 1 1-1h8l3 3v9a1 1 0 0 1-1 1h-9a1 1 0 0 1-1-1V9a1 1 0 0 1 1-1z" fill="url(#g)"/>
  <path d="M19 8v3h-3" fill="none" stroke="url(#g)" stroke-width="1.5" stroke-linecap="round" stroke-linejoin="round"/>
</svg>
